<svg width="486" height="194" viewBox="0 0 486 194" fill="none" xmlns="http://www.w3.org/2000/svg">
<path d="M188.919 25.9681H183.345V38.4145H178.298V7.73682H188.919C196.215 7.73682 199.799 11.8856 199.799 16.8759C199.799 21.2467 196.918 25.9681 188.919 25.9681ZM188.919 21.8661C192.854 21.8661 194.623 19.9728 194.623 16.8759C194.623 13.7789 192.854 11.8389 188.919 11.8389H183.345V21.8661H188.919Z" fill="#43A0D6"/>
<path d="M227.589 32.1503H214.718L212.505 38.4261H207.235L218.255 7.68994H224.099L235.119 38.4261H229.814L227.6 32.1503H227.589ZM221.171 13.7787L216.124 28.0366H226.172L221.171 13.7787Z" fill="#43A0D6"/>
<path d="M270.684 23.1867C270.684 32.6296 264.22 38.4145 254.359 38.4145H244.312V7.73682H254.359C264.22 7.73682 270.684 13.6971 270.684 23.1867ZM254.359 34.3125C261.62 34.3125 265.508 30.1637 265.508 23.1867C265.508 16.2097 261.608 11.8389 254.359 11.8389H249.359V34.3242H254.359V34.3125Z" fill="#43A0D6"/>
<path d="M290.733 7.73682C298.029 7.73682 301.613 11.9324 301.613 16.9226C301.613 20.5455 299.669 24.4255 294.492 25.711L302.105 38.4262H296.085L289.012 26.1551H285.159V38.4262H280.112V7.73682H290.733ZM290.733 11.8389H285.159V22.1232H290.733C294.668 22.1232 296.437 19.9612 296.437 16.9109C296.437 13.8607 294.668 11.8389 290.733 11.8389Z" fill="#43A0D6"/>
<path d="M331.054 32.1502H318.184L315.97 38.426H310.7L321.72 7.68988H327.564L338.584 38.426H333.279L331.066 32.1502H331.054ZM322.423 0.0116867C324.812 0.0116867 325.784 1.95169 327.552 1.95169C328.524 1.95169 329.274 1.37904 329.45 0.093494H332.284C331.792 3.58783 329.848 5.25904 327.283 5.25904C324.894 5.25904 323.922 3.27229 322.154 3.27229C321.182 3.27229 320.432 3.89169 320.256 5.16554H317.422C317.914 1.68289 319.858 0 322.423 0V0.0116867ZM324.636 13.7904L319.589 28.0482H329.637L324.636 13.7904Z" fill="#43A0D6"/>
<path d="M361.807 38.73C353.141 38.73 346.102 32.2438 346.102 23.0113C346.102 13.7788 353.141 7.33936 361.807 7.33936C370.473 7.33936 377.511 13.8255 377.511 23.0113C377.511 32.1971 370.566 38.73 361.807 38.73ZM361.807 34.3591C367.908 34.3591 372.335 29.9415 372.335 23.0113C372.335 16.081 367.908 11.7569 361.807 11.7569C355.705 11.7569 351.278 16.081 351.278 23.0113C351.278 29.9415 355.705 34.3591 361.807 34.3591Z" fill="#43A0D6"/>
<path d="M413.182 34.3241C420.794 27.651 428.804 21.831 428.804 15.5201C428.804 12.166 427.34 9.86374 423.581 9.86374C420.045 9.86374 418.136 12.3413 418.007 15.9525H413.135C413.311 8.97555 417.819 5.57471 423.534 5.57471C430.081 5.57471 433.793 9.50145 433.793 15.2864C433.793 23.1048 425.83 29.0651 420.654 33.7865H434.683V37.9821H413.182V34.3124V34.3241Z" fill="#43A0D6"/>
<path d="M450.177 38.7299C448.361 38.7299 446.944 37.3158 446.944 35.5044C446.944 33.6929 448.361 32.2788 450.177 32.2788C451.992 32.2788 453.362 33.6929 453.362 35.5044C453.362 37.3158 451.945 38.7299 450.177 38.7299Z" fill="#43A0D6"/>
<path d="M474.078 5.66797C483.107 5.66797 485.578 12.7268 485.578 21.9125C485.578 31.0983 483.096 38.3324 474.078 38.3324C465.061 38.3324 462.578 31.2736 462.578 21.9125C462.578 12.5515 465.061 5.66797 474.078 5.66797ZM474.078 10.2609C468.2 10.2609 467.532 15.9172 467.532 21.9125C467.532 28.2234 468.2 33.7395 474.078 33.7395C479.957 33.7395 480.625 28.2234 480.625 21.9125C480.625 15.6017 479.957 10.2609 474.078 10.2609Z" fill="#43A0D6"/>
<path d="M28.2583 0.525879H0V156.182C0 180.478 14.1233 192.633 31.5256 192.633C31.9355 192.633 32.3453 192.609 32.7552 192.586H61.5288V166.898H50.2161C50.2161 166.898 42.3581 166.805 38.88 166.805C32.5796 166.805 28.2231 162.679 28.2231 153.786V131.873H28.2583V101.932H61.5171V75.2509H28.2583V0.525879Z" fill="#002C6A"/>
<path d="M351.747 81.9711C344.076 78.4417 334.473 76.5718 322.786 76.5718C305.185 76.5718 288.567 83.2683 283.484 96.077C275.322 83.5838 260.59 76.5718 238 76.5718C219.086 76.5718 208.336 84.3668 206.591 90.8647V77.647H178.333V193.72H206.591V136.665C206.591 117.569 217.892 103.475 237.028 103.253C253.118 103.253 262.897 113.233 262.897 129.501V193.72H291.378V136.665C291.378 117.569 302.678 103.475 321.814 103.253C327.868 103.253 333.021 104.667 337.097 107.296L351.747 81.9827V81.9711Z" fill="#002C6A"/>
<path d="M376.152 127.199V193.72H347.672V133.848L361.127 110.592L367.041 100.366C367.24 100.085 367.44 99.8048 367.65 99.536C367.943 99.1387 368.236 98.753 368.552 98.3557C368.775 98.0752 368.985 97.8064 369.22 97.5376C373.939 105.485 376.152 115.477 376.152 127.199Z" fill="#002C6A"/>
<path d="M180.265 134.795C180.265 128.765 179.34 122.945 177.654 117.475C177.478 116.914 177.302 116.365 177.115 115.804C176.928 115.255 176.728 114.705 176.529 114.156C176.319 113.607 176.108 113.058 175.885 112.508C175.663 111.971 175.429 111.421 175.194 110.884C175.194 110.86 175.171 110.837 175.159 110.802C174.948 110.335 174.726 109.867 174.503 109.4C173.824 107.962 173.086 106.56 172.267 105.181C171.423 103.732 170.522 102.317 169.561 100.95C167.629 98.1804 165.427 95.5391 162.945 93.0616C157.956 88.083 152.3 84.2147 146.269 81.3865C146.116 81.3164 145.952 81.2463 145.8 81.1761C145.027 80.8255 144.243 80.4749 143.446 80.1594C143.142 80.0308 142.826 79.914 142.509 79.7854C141.83 79.5283 141.151 79.2595 140.46 79.0258C139.441 78.6752 138.411 78.3479 137.368 78.0441C136.794 77.8805 136.221 77.7285 135.635 77.5766C135.155 77.4481 134.663 77.3429 134.183 77.226C132.52 76.852 130.845 76.5482 129.159 76.3261C128.855 76.2794 128.55 76.2443 128.234 76.1976C126.758 76.0223 125.271 75.9054 123.784 75.8353L122.765 75.8002C122.226 75.8002 121.676 75.7769 121.137 75.7769C120.189 75.7769 119.24 75.8002 118.303 75.847C116.394 75.9405 114.497 76.1158 112.612 76.3846C112.155 76.4547 111.698 76.5248 111.241 76.6066C110.925 76.6534 110.609 76.7118 110.305 76.7702C109.977 76.8287 109.649 76.8871 109.309 76.9572C109.005 77.0273 108.688 77.0858 108.384 77.1559C108.044 77.2377 107.693 77.3078 107.353 77.3896C105.339 77.8688 103.348 78.4531 101.393 79.1426C100.994 79.2829 100.608 79.4231 100.222 79.575C99.8116 79.727 99.4017 79.8906 98.9919 80.0542C98.6874 80.1711 98.3946 80.2996 98.0901 80.4282C97.6568 80.6035 97.2352 80.7905 96.8019 80.9892C96.3686 81.1878 95.9353 81.3865 95.502 81.5969C95.1273 81.7722 94.7525 81.9591 94.3778 82.1461C92.2113 83.2447 90.0916 84.4835 88.0539 85.8742C87.6675 86.1313 87.281 86.4001 86.9063 86.6689C86.5315 86.926 86.1685 87.1831 85.8055 87.4636C85.4073 87.7558 85.0208 88.0479 84.6227 88.3635C84.2479 88.6557 83.8849 88.9478 83.5218 89.2517C82.0814 90.432 80.6761 91.7059 79.3177 93.0616C77.9592 94.4172 76.6827 95.8196 75.4999 97.2571C75.1954 97.6194 74.9027 97.9817 74.6099 98.3557C74.2937 98.753 74.0009 99.1387 73.7082 99.536C73.4271 99.8983 73.1695 100.261 72.9118 100.635C71.1786 103.042 69.6679 105.555 68.3563 108.137C68.1924 108.476 68.0167 108.804 67.8527 109.143C67.841 109.189 67.8176 109.224 67.7942 109.271C67.5951 109.68 67.4077 110.089 67.2204 110.51C67.0213 110.931 66.8339 111.363 66.6582 111.795C66.5294 112.099 66.4006 112.391 66.2835 112.695C66.1195 113.104 65.9556 113.513 65.8033 113.922C65.6394 114.367 65.4754 114.811 65.3115 115.266C65.1592 115.699 65.0187 116.131 64.8782 116.564C64.8665 116.599 64.8548 116.645 64.8431 116.68C64.7142 117.066 64.5971 117.452 64.48 117.837C64.1638 118.866 63.8945 119.906 63.6368 120.946C63.5431 121.332 63.4495 121.729 63.3675 122.126C63.3089 122.419 63.2387 122.699 63.1801 122.991C63.1098 123.33 63.0396 123.669 62.981 124.02C62.9342 124.324 62.8756 124.616 62.8288 124.908C62.7468 125.352 62.6883 125.784 62.618 126.217C62.3369 128.122 62.1613 130.038 62.0676 131.955C62.0207 132.89 61.9973 133.837 61.9973 134.783V134.807C61.9973 135.742 62.0207 136.676 62.0676 137.611C62.1496 139.505 62.3369 141.386 62.6063 143.256C62.6765 143.724 62.7468 144.191 62.8288 144.659L63.0044 145.675C63.0513 145.979 63.1216 146.283 63.1801 146.575C63.2387 146.867 63.3089 147.16 63.3675 147.452C63.4612 147.861 63.5549 148.27 63.6485 148.69C63.6837 148.796 63.7071 148.901 63.7305 149.018C63.8359 149.415 63.9413 149.812 64.0467 150.221C64.1872 150.724 64.3278 151.238 64.48 151.741C64.5971 152.126 64.7142 152.512 64.8431 152.898C64.8548 152.933 64.8665 152.979 64.8782 153.015C65.0187 153.447 65.1592 153.879 65.3115 154.312C65.4754 154.768 65.6394 155.212 65.8033 155.656C65.9556 156.065 66.1195 156.474 66.2835 156.883C66.4006 157.187 66.5294 157.479 66.6582 157.783C66.8105 158.145 66.9627 158.496 67.1267 158.858C67.3609 159.384 67.6068 159.91 67.8527 160.436C68.0167 160.775 68.1924 161.113 68.3563 161.441C69.6679 164.023 71.1786 166.536 72.9118 168.944C73.1695 169.318 73.4271 169.68 73.7082 170.042C74.0009 170.44 74.2937 170.825 74.6099 171.223C74.9027 171.596 75.1954 171.959 75.4999 172.321C76.6827 173.759 77.9592 175.161 79.3177 176.517C81.7067 178.901 84.2479 181.028 86.9063 182.909C87.1991 183.131 87.5035 183.342 87.808 183.54C88.0657 183.716 88.335 183.903 88.5926 184.066C89.0025 184.335 89.4124 184.604 89.834 184.861C90.2439 185.118 90.6655 185.375 91.0871 185.621C91.5086 185.866 91.9302 186.111 92.3518 186.345C92.7734 186.579 93.2067 186.813 93.6283 187.035C94.4832 187.479 95.3498 187.9 96.2164 188.297C96.5443 188.449 96.8839 188.612 97.2118 188.753C97.9496 189.08 98.6874 189.395 99.4369 189.688C99.9639 189.886 100.503 190.085 101.041 190.284C101.299 190.377 101.557 190.459 101.814 190.552C107.88 192.644 114.368 193.801 121.137 193.801C139.172 193.801 155.309 185.714 166.154 172.999L149.208 153.003C144.442 160.295 136.9 165.636 128.082 167.494C127.847 167.541 127.613 167.588 127.367 167.623C127.285 167.646 127.192 167.658 127.11 167.67C126.571 167.787 126.021 167.868 125.47 167.927C125.177 167.974 124.885 168.009 124.592 168.032C124.299 168.079 124.006 168.102 123.713 168.102C123.14 168.161 122.554 168.196 121.957 168.196C121.687 168.219 121.418 168.219 121.137 168.219C120.587 168.219 120.048 168.207 119.509 168.172C118.971 168.149 118.432 168.114 117.905 168.055C117.366 168.009 116.827 167.95 116.3 167.868C115.785 167.798 115.27 167.716 114.755 167.611C114.743 167.611 114.731 167.611 114.72 167.611C113.724 167.424 112.74 167.191 111.78 166.91C111.651 166.863 111.511 166.828 111.382 166.793C111.042 166.688 110.703 166.583 110.363 166.454C109.836 166.279 109.309 166.092 108.794 165.882C108.501 165.777 108.197 165.648 107.904 165.519C107.775 165.473 107.658 165.414 107.529 165.356C107.213 165.227 106.897 165.075 106.592 164.923C105.819 164.561 105.07 164.152 104.32 163.72C103.992 163.533 103.653 163.334 103.337 163.124C102.985 162.913 102.646 162.691 102.318 162.457C101.65 162.013 101.006 161.546 100.374 161.032C100.362 161.032 100.362 161.02 100.362 161.02C100.046 160.786 99.7414 160.529 99.4369 160.26C99.4369 160.272 99.4369 160.26 99.4135 160.237C99.1207 160.003 98.8279 159.746 98.5469 159.489C98.2424 159.209 97.9262 158.916 97.6334 158.613C97.5632 158.554 97.5046 158.496 97.446 158.437C97.2587 158.25 97.083 158.063 96.9073 157.876C96.0056 156.953 95.1858 155.983 94.4364 154.978C94.1787 154.662 93.9328 154.335 93.722 153.996C93.4761 153.669 93.2418 153.33 93.0311 152.991C92.5392 152.255 92.0942 151.507 91.696 150.747C91.5672 150.525 91.4501 150.303 91.333 150.07C91.2042 149.812 91.0753 149.544 90.9465 149.275C90.6655 148.714 90.4078 148.153 90.1853 147.592H178.836C179.75 143.466 180.265 139.201 180.265 134.807V134.795ZM90.1853 121.998C93.5815 113.829 100.128 107.296 108.314 103.907C108.829 103.685 109.344 103.486 109.86 103.311C110.375 103.112 110.902 102.949 111.429 102.797C111.979 102.633 112.53 102.481 113.092 102.341L113.689 102.201C114.591 101.99 115.516 101.815 116.453 101.698C117.46 101.558 118.49 101.453 119.509 101.406C120.048 101.371 120.587 101.359 121.137 101.359C121.687 101.359 122.214 101.359 122.753 101.406C123.819 101.453 124.885 101.546 125.915 101.71C125.95 101.71 125.997 101.721 126.044 101.721C126.536 101.792 127.028 101.873 127.508 101.967C127.531 101.979 127.566 101.979 127.59 101.99C128.023 102.072 128.456 102.166 128.89 102.271C128.983 102.294 129.077 102.306 129.171 102.341C129.686 102.458 130.178 102.598 130.681 102.75C131.021 102.843 131.361 102.949 131.7 103.077C131.958 103.147 132.227 103.241 132.485 103.334C132.801 103.439 133.106 103.556 133.422 103.697C133.715 103.802 134.007 103.919 134.3 104.059C134.581 104.164 134.874 104.293 135.155 104.433C135.377 104.526 135.612 104.631 135.834 104.76C135.893 104.772 135.951 104.807 136.01 104.842C139.195 106.408 142.17 108.511 144.816 111.153C148.013 114.343 150.426 118.013 152.054 121.928L152.089 121.998H90.1853Z" fill="#002C6A"/>
<path d="M485.93 132.679C485.368 108.406 469.944 87.8023 448.385 79.5982C441.885 77.0856 434.824 75.6948 427.446 75.6948C395.323 75.6948 369.184 101.78 369.184 133.836C369.184 151.507 377.136 167.354 389.643 178.024L389.585 178.129C399.808 186.918 413.088 192.27 427.645 192.27C439.93 192.27 451.312 188.46 460.705 181.997V191.195H486V132.668H485.93V132.679ZM394.363 133.848C394.363 129.43 395.241 125.223 396.81 121.367L398.45 118.538C404.012 108.126 414.985 101.043 427.633 101.043C437.318 101.043 446.043 105.204 452.085 111.83C457.332 117.674 460.529 125.387 460.529 133.848C460.529 152.079 445.715 166.863 427.446 166.863C420.138 166.863 413.393 164.491 407.912 160.494C405.98 159.056 404.2 157.409 402.63 155.585L402.607 155.632C397.478 149.812 394.374 142.192 394.374 133.848H394.363Z" fill="#002C6A"/>
</svg>
